HIERARCHY
ROOT hips
{
  OFFSET 4.514983404067499e-9 10.105397940993303 1.318478203070619
  CHANNELS 6 Xposition Yposition Zposition Yrotation Xrotation Zrotation
  JOINT spine
  {
    OFFSET -3.891297943093837e-9 0.5743022203102706 0
    CHANNELS 3 Yrotation Xrotation Zrotation
    JOINT chest
    {
      OFFSET 0 1.2550312016247926 0
      CHANNELS 3 Yrotation Xrotation Zrotation
      JOINT upperChest
      {
        OFFSET 0 1.2059856050120283 0
        CHANNELS 3 Yrotation Xrotation Zrotation
        JOINT neck
        {
          OFFSET 0 1.5290392449770056 0
          CHANNELS 3 Yrotation Xrotation Zrotation
          JOINT head
          {
            OFFSET 0 0.8186276690878121 0
            CHANNELS 3 Yrotation Xrotation Zrotation
            JOINT leftEye
            {
              OFFSET 0.4540883942785781 -0.2684596961258452 0.6133497327236779
              CHANNELS 3 Yrotation Xrotation Zrotation
              End Site
              {
                OFFSET 0.4540883942785781 -0.2684596961258452 0.6133497327236779
              }
            }
            JOINT rightEye
            {
              OFFSET -0.4540889229417456 -0.26846010916843954 0.6133525398671689
              CHANNELS 3 Yrotation Xrotation Zrotation
              End Site
              {
                OFFSET -0.4540889229417456 -0.26846010916843954 0.6133525398671689
              }
            }
          }
        }
        JOINT leftShoulder
        {
          OFFSET 1.1700010731725468 -0.4176065950681176 0
          CHANNELS 3 Yrotation Xrotation Zrotation
          JOINT leftUpperArm
          {
            OFFSET 1.1803911524554955 0 0
            CHANNELS 3 Yrotation Xrotation Zrotation
            JOINT leftLowerArm
            {
              OFFSET 2.4406171707858904 0 0
              CHANNELS 3 Yrotation Xrotation Zrotation
              JOINT leftHand
              {
                OFFSET 2.3832177068873874 0 0
                CHANNELS 3 Yrotation Xrotation Zrotation
                JOINT leftIndexProximal
                {
                  OFFSET 0.7310175006235151 0.08192774217833776 0.20404791572985242
                  CHANNELS 3 Yrotation Xrotation Zrotation
                  JOINT leftIndexIntermediate
                  {
                    OFFSET 0.3688845439429529 -0.010662034455094949 -0.014226011560394963
                    CHANNELS 3 Yrotation Xrotation Zrotation
                    JOINT leftIndexDistal
                    {
                      OFFSET 0.2271119941018298 -0.007897656478952575 -0.007580683836364496
                      CHANNELS 3 Yrotation Xrotation Zrotation
                      End Site
                      {
                        OFFSET 0.2271119941018298 -0.007897656478952575 -0.007580683836364496
                      }
                    }
                  }
                }
                JOINT leftLittleProximal
                {
                  OFFSET 0.678269929308182 0.08192620621401336 -0.323876516389586
                  CHANNELS 3 Yrotation Xrotation Zrotation
                  JOINT leftLittleIntermediate
                  {
                    OFFSET 0.34904545821382604 -0.0000017106393073174075 8.629360392919949e-9
                    CHANNELS 3 Yrotation Xrotation Zrotation
                    JOINT leftLittleDistal
                    {
                      OFFSET 0.2011060672849896 0.0031247840072243793 0.0038660318003989197
                      CHANNELS 3 Yrotation Xrotation Zrotation
                      End Site
                      {
                        OFFSET 0.2011060672849896 0.0031247840072243793 0.0038660318003989197
                      }
                    }
                  }
                }
                JOINT leftMiddleProximal
                {
                  OFFSET 0.7368181082522638 0.0819260272939426 0.02272335773438093
                  CHANNELS 3 Yrotation Xrotation Zrotation
                  JOINT leftMiddleIntermediate
                  {
                    OFFSET 0.41136739116025356 -0.0000015892429323649537 5.27860346960507e-8
                    CHANNELS 3 Yrotation Xrotation Zrotation
                    JOINT leftMiddleDistal
                    {
                      OFFSET 0.25378150303820757 -0.0000015332469289752737 1.3442958385345705e-8
                      CHANNELS 3 Yrotation Xrotation Zrotation
                      End Site
                      {
                        OFFSET 0.25378150303820757 -0.0000015332469289752737 1.3442958385345705e-8
                      }
                    }
                  }
                }
                JOINT leftRingProximal
                {
                  OFFSET 0.7284256823094712 0.08192611199801392 -0.1508405069143483
                  CHANNELS 3 Yrotation Xrotation Zrotation
                  JOINT leftRingIntermediate
                  {
                    OFFSET 0.381593741461262 -0.0000016975471202052006 6.592486757883709e-8
                    CHANNELS 3 Yrotation Xrotation Zrotation
                    JOINT leftRingDistal
                    {
                      OFFSET 0.22014536669820362 -0.0027420652959939673 -0.005037497035641991
                      CHANNELS 3 Yrotation Xrotation Zrotation
                      End Site
                      {
                        OFFSET 0.22014536669820362 -0.0027420652959939673 -0.005037497035641991
                      }
                    }
                  }
                }
                JOINT leftThumbProximal
                {
                  OFFSET 0.10842212958334652 -0.16573713992498873 -0.07779936144556289
                  CHANNELS 3 Yrotation Xrotation Zrotation
                  JOINT leftThumbIntermediate
                  {
                    OFFSET 0.40720553822379024 -0.01751267955631075 0.31852684427382305
                    CHANNELS 3 Yrotation Xrotation Zrotation
                    JOINT leftThumbDistal
                    {
                      OFFSET 0.23412859218032667 -0.01859690713588802 0.2146635043319005
                      CHANNELS 3 Yrotation Xrotation Zrotation
                      End Site
                      {
                        OFFSET 0.23412859218032667 -0.01859690713588802 0.2146635043319005
                      }
                    }
                  }
                }
              }
            }
          }
        }
        JOINT rightShoulder
        {
          OFFSET -1.1700037144859516 -0.41760703856471126 0
          CHANNELS 3 Yrotation Xrotation Zrotation
          JOINT rightUpperArm
          {
            OFFSET -1.1803910289368023 0 0
            CHANNELS 3 Yrotation Xrotation Zrotation
            JOINT rightLowerArm
            {
              OFFSET -2.440617418222133 0 0
              CHANNELS 3 Yrotation Xrotation Zrotation
              JOINT rightHand
              {
                OFFSET -2.3832181162662343 0 0
                CHANNELS 3 Yrotation Xrotation Zrotation
                JOINT rightIndexProximal
                {
                  OFFSET -0.7310168852843362 0.08192787643494381 0.20404785424302163
                  CHANNELS 3 Yrotation Xrotation Zrotation
                  JOINT rightIndexIntermediate
                  {
                    OFFSET -0.3688846010723953 -0.01066191355993129 -0.014226020535245201
                    CHANNELS 3 Yrotation Xrotation Zrotation
                    JOINT rightIndexDistal
                    {
                      OFFSET -0.22711216276130997 -0.007898902439410271 -0.007580718044857868
                      CHANNELS 3 Yrotation Xrotation Zrotation
                      End Site
                      {
                        OFFSET -0.22711216276130997 -0.007898902439410271 -0.007580718044857868
                      }
                    }
                  }
                }
                JOINT rightLittleProximal
                {
                  OFFSET -0.6782685897119165 0.08192501740206293 -0.3238766118101876
                  CHANNELS 3 Yrotation Xrotation Zrotation
                  JOINT rightLittleIntermediate
                  {
                    OFFSET -0.34904682243945895 -2.664019085329983e-7 3.792712677253007e-8
                    CHANNELS 3 Yrotation Xrotation Zrotation
                    JOINT rightLittleDistal
                    {
                      OFFSET -0.20110609302945537 0.0031260842677420797 0.0038661724369087186
                      CHANNELS 3 Yrotation Xrotation Zrotation
                      End Site
                      {
                        OFFSET -0.20110609302945537 0.0031260842677420797 0.0038661724369087186
                      }
                    }
                  }
                }
                JOINT rightMiddleProximal
                {
                  OFFSET -0.7368168209984411 0.08192485183145659 0.022723294831187846
                  CHANNELS 3 Yrotation Xrotation Zrotation
                  JOINT rightMiddleIntermediate
                  {
                    OFFSET -0.4113687575187084 -9.03141548214137e-8 4.759541079313312e-8
                    CHANNELS 3 Yrotation Xrotation Zrotation
                    JOINT rightMiddleDistal
                    {
                      OFFSET -0.2537822083525749 -9.554208624251714e-8 -1.6364827826187422e-9
                      CHANNELS 3 Yrotation Xrotation Zrotation
                      End Site
                      {
                        OFFSET -0.2537822083525749 -9.554208624251714e-8 -1.6364827826187422e-9
                      }
                    }
                  }
                }
                JOINT rightRingProximal
                {
                  OFFSET -0.7284243957721679 0.08192492753028224 -0.15084062217729294
                  CHANNELS 3 Yrotation Xrotation Zrotation
                  JOINT rightRingIntermediate
                  {
                    OFFSET -0.381595106800805 -2.5662436442530634e-7 2.929475539925619e-8
                    CHANNELS 3 Yrotation Xrotation Zrotation
                    JOINT rightRingDistal
                    {
                      OFFSET -0.22014544912608125 -0.002738002524970362 -0.0050375115645966
                      CHANNELS 3 Yrotation Xrotation Zrotation
                      End Site
                      {
                        OFFSET -0.22014544912608125 -0.002738002524970362 -0.0050375115645966
                      }
                    }
                  }
                }
                JOINT rightThumbProximal
                {
                  OFFSET -0.10842026863657162 -0.16573778435706465 -0.07779917642461898
                  CHANNELS 3 Yrotation Xrotation Zrotation
                  JOINT rightThumbIntermediate
                  {
                    OFFSET -0.40720600760521597 -0.017512298079938038 0.3185267362029824
                    CHANNELS 3 Yrotation Xrotation Zrotation
                    JOINT rightThumbDistal
                    {
                      OFFSET -0.2341289751103648 -0.018594162598156494 0.21466399510514025
                      CHANNELS 3 Yrotation Xrotation Zrotation
                      End Site
                      {
                        OFFSET -0.2341289751103648 -0.018594162598156494 0.21466399510514025
                      }
                    }
                  }
                }
              }
            }
          }
        }
      }
    }
  }
  JOINT leftUpperLeg
  {
    OFFSET -0.8565189721517369 0.4427277044191169 0
    CHANNELS 3 Yrotation Xrotation Zrotation
    JOINT leftLowerLeg
    {
      OFFSET 0 -3.918486704769693 0
      CHANNELS 3 Yrotation Xrotation Zrotation
      JOINT leftFoot
      {
        OFFSET 6.174701361744139e-7 -0.055233446196002234 4.612027801972084
        CHANNELS 3 Yrotation Xrotation Zrotation
        JOINT leftToes
        {
          OFFSET -3.4372540951010944e-7 -0.705284859504459 1.2256624571888697
          CHANNELS 3 Yrotation Xrotation Zrotation
          End Site
          {
            OFFSET -3.4372540951010944e-7 -0.705284859504459 1.2256624571888697
          }
        }
      }
    }
  }
  JOINT rightUpperLeg
  {
    OFFSET 0.8565189732197466 0.44272769569168136 0
    CHANNELS 3 Yrotation Xrotation Zrotation
    JOINT rightLowerLeg
    {
      OFFSET 0 -3.918486692649319 0
      CHANNELS 3 Yrotation Xrotation Zrotation
      JOINT rightFoot
      {
        OFFSET 6.995136552362391e-7 -0.05523244834012664 4.612028499942008
        CHANNELS 3 Yrotation Xrotation Zrotation
        JOINT rightToes
        {
          OFFSET -4.2566694985479714e-7 -0.7052846587611067 1.22566236096697
          CHANNELS 3 Yrotation Xrotation Zrotation
          End Site
          {
            OFFSET -4.2566694985479714e-7 -0.7052846587611067 1.22566236096697
          }
        }
      }
    }
  }
}
MOTION
Frames: 4
Frame Time: 0.03333333333333333
-0.03185804560780525 -0.24855971467494342 0.01725046895444393 -8.704428878266704 -3.0374713423202264 1.0667771337569856 0.3759408610193672 3.701869908830675 -0.1440780749587544 1.5220356639101111 14.800347375053933 0.28749790865429914 0 0 0 -0.5787559330467636 3.041397821258413 2.1621960931345563 1.3876233713082124 -9.060477677190324 -3.314759944885695 0 0 0 0 0 0 0.0000014251437558921706 0.000009245920701667891 0.0002642921355492524 -20.349693343730177 6.349933843628479 -72.95091972843868 -79.04464321564122 0.587084135465048 0.8117983967423968 -3.5572473622476877 35.80029784361441 23.631427814355998 1.9981101642982182 -6.063128365254193 -8.172425603939296 0.13369043126513314 -0.04442940449787406 -20.16888595548945 -5.138253261219184e-7 -0.000003038612174694916 0.0000014759412343762605 0.9296187142971716 -0.4336363083377714 -42.054882378423756 -1.1637335284103896 -0.05927428650075135 -8.711756446578484 -0.000007385713298230362 -0.0000030978653486329573 0.0000016417671114700337 2.0374244223364966 -0.3880181686178655 -14.051210040193357 -2.0589092244379725 -0.4166618070250884 -22.274777348060876 -0.0000113669120121022 -0.000010454459829088182 -0.00000510058623201541 4.3989485622150974 0.4959520986132881 -29.215049739682506 -2.4881201709698555 -0.5706650167561025 -26.228660554144085 0.000007050897884467826 0.0000036704333823887617 -9.107201547124507e-8 -10.651285675722628 -3.8283528734016365 -3.517222316945873 21.251889364152998 3.1805584406835608 -4.856108689913559 -0.0000067253324397187314 -0.00000815080351285434 -0.0000015145599873184646 0.000007968279367460679 0.000003462051174768257 0.00030603303739949115 5.2042725882415715 12.557191289497839 75.28190423097044 91.09294018015264 0.7636052575441102 -0.8219712245519634 6.5469138071184 30.367051845331925 -19.197873837064268 -6.828653323161508 -6.036342732959925 18.803790971024025 -0.28085723685403363 0.02981703208498217 8.96613801961877 3.933694872703174e-10 3.1805546814635168e-15 -4.874754472204794e-12 2.388016495579017 2.8980453578795764 33.46762500804348 6.559212242654213 -2.2221740620083135 37.59122508108933 1.6628260911929426e-9 -3.1805543023118527e-15 -2.179830267765673e-11 -1.4524848601396858 -1.9276624508353 22.943130692961947 1.6565298655026923 -0.344041524070056 22.715693747865153 -1.524762367070164e-8 -3.350057845199431e-15 -0.0000012738795267965104 -4.297739076528252 2.100792267292927 19.59482202108236 5.513165831011011 -2.8565707480526235 52.4358054619168 -0.000013081337852048256 0.000004036778728819463 -0.000007375140625580428 5.827604756759829 5.2541765371738585 14.022808605357953 -12.178206869298668 3.4403658654153233 1.0284765931558424 -0.0000021710867260004195 0.0000011618697544683478 0.0000047933033280196144 1.4003656857938431 -6.0389874530307175 4.144537832596893 -0.1410249931592902 21.227973171439864 -0.8337348829118024 11.886968503095298 -10.964222319834493 -6.740401403893373 -0.025839232281178945 -0.016595907499479687 0.02900472118437722 0.4219263355622697 -7.7701873038499105 -4.608270575939134 0.03652367087242667 24.487018608296655 0.927475871362919 -8.432232152289151 -13.532723777370522 6.118092850760148 -0.10631986025236648 -0.012215365702519949 0.263512437434439
-0.03325433284044266 -0.2489068521261153 0.01839839294552803 -8.693139911163684 -3.0435748109774114 1.0829501863325295 0.37687060249351145 3.7020136427139576 -0.14607995911153038 1.525384691709147 14.800864856075817 0.28817261572663505 0 0 0 -0.5882599087887859 3.0318477601700278 2.1564830918863795 1.337015749641649 -9.04518132375776 -3.3135048462197108 0 0 0 0 0 0 0.0000014251437558921706 0.000009245920701667891 0.0002642921355492524 -20.344211865619158 6.347520365365001 -72.907236711714 -79.03809841895595 0.587075864098647 0.8118046396634004 -3.5284147070486678 35.61726502609914 23.55236883576137 2.016474316230368 -6.058755223994088 -8.224608846991165 0.13375438409337298 -0.04438826993804614 -20.18531466718245 -5.138253261219184e-7 -0.000003038612174694916 0.0000014759412343762605 0.9291527044821247 -0.4336677654615498 -42.029615478746216 -1.1619431598861676 -0.05899735019685016 -8.697656615317536 -0.000007385713298230362 -0.0000030978653486329573 0.0000016417671114700337 2.0447282361746444 -0.38524075303144584 -14.058938083294693 -2.052809870641848 -0.41419014739238186 -22.20543193333779 -0.0000113669120121022 -0.000010454459829088182 -0.00000510058623201541 4.411133132205238 0.5027096001180289 -29.24474078516206 -2.4880048662111376 -0.570617363151039 -26.22727217435472 0.000007050897884467826 0.0000036704333823887617 -9.107201547124507e-8 -10.56456203078641 -3.7835436308714745 -3.5403072054491456 21.282569301531762 3.1941848300891036 -4.858495790339744 -0.0000067253324397187314 -0.00000815080351285434 -0.0000015145599873184646 0.000007968279367460679 0.000003462051174768257 0.00030603303739949115 5.193672253057722 12.523940961077548 75.26621892225235 91.04114047948975 0.7629714878175351 -0.8220198976849558 6.624638375885967 30.472529691415275 -19.115210819943865 -6.849942424868805 -6.030117110288154 18.805736063065556 -0.27931114435238585 0.029485064169535606 8.90310519021458 3.933694872703174e-10 3.1805546814635168e-15 -4.874754472204794e-12 2.395157741394746 2.8944534263677713 33.580308766381975 6.552102931801597 -2.2166697096242105 37.54325827346997 1.6628260911929426e-9 -3.1805543023118527e-15 -2.179830267765673e-11 -1.3822216837864836 -1.951209142853127 22.996236735468912 1.653624143940767 -0.34281929845904285 22.673502341690337 -1.524762367070164e-8 -3.350057845199431e-15 -0.0000012738795267965104 -4.281193674749773 2.102380073606478 19.68072126528725 5.50662130045587 -2.848082259415198 52.34764025024013 -0.000013081337852048256 0.000004036778728819463 -0.000007375140625580428 5.869228229389235 5.245467800043936 13.862098977381835 -12.03918118392978 3.370316191391234 1.0383909222559402 -0.0000021710867260004195 0.0000011618697544683478 0.0000047933033280196144 1.389975355570752 -6.02441954554589 4.134860781973568 -0.14103899835241201 21.227727704669768 -0.8335987030811622 11.89035629953979 -10.97018903551236 -6.749767649606866 -0.02583459155489456 -0.016565576855921235 0.029059095889235262 0.39657892097805136 -7.769162761203474 -4.620575690979994 0.03676669861000585 24.51623242332651 0.9286802452248883 -8.414355087874247 -13.556248060756953 6.111950027437585 -0.10632086076664242 -0.012218582361506391 0.2635107565852934
-0.03610381856560707 -0.24945140016078327 0.021034471690654755 -8.667119820092289 -3.0585842970692454 1.1131781209660165 0.38093445434869316 3.7007251719500984 -0.14811877297900478 1.5415577858559237 14.79544284660966 0.296996873909226 0 0 0 -0.6096002847891296 3.0163673499754533 2.144717648783213 1.2304721611058091 -8.99914142903628 -3.3127845499488675 0 0 0 0 0 0 0.0000014251437558921706 0.000009245920701667891 0.0002642921355492524 -20.351063055018656 6.3390786493837386 -72.83128134584823 -79.00392494653153 0.5868118207440935 0.8118075793397228 -3.486584047761895 35.511092292597375 23.444506215000164 1.9826108645318692 -6.078661524351347 -8.31661770243389 0.13381160012986998 -0.044333971918901795 -20.206451168477205 -5.138253261219184e-7 -0.000003038612174694916 0.0000014759412343762605 0.906047443508073 -0.4479903757381297 -42.05921978449465 -1.1603247914406336 -0.05873306709321553 -8.685147500558923 -0.000007385713298230362 -0.0000030978653486329573 0.0000016417671114700337 2.06455193574117 -0.3777579815161774 -14.116336798826946 -2.040226083500064 -0.40905459306073516 -22.062269956009384 -0.0000113669120121022 -0.000010454459829088182 -0.00000510058623201541 4.401952901648187 0.5031117429965776 -29.32421215695255 -2.48759666386496 -0.5703962248142297 -26.222564789336346 0.000007050897884467826 0.0000036704333823887617 -9.107201547124507e-8 -10.599421616293066 -3.784455742038275 -3.465838936973485 21.245308000130635 3.1776483570679273 -4.855755501865551 -0.0000067253324397187314 -0.00000815080351285434 -0.0000015145599873184646 0.000007968279367460679 0.000003462051174768257 0.00030603303739949115 5.192890100071992 12.484392679919258 75.24123996950992 90.93647297929938 0.7615976444329358 -0.8221749838669525 6.698862754379932 30.576563006828394 -19.023312607070746 -6.873681692268373 -6.02340478175731 18.798335507799333 -0.2785529956686981 0.02932646902375054 8.872108303404108 3.933694872703174e-10 3.1805546814635168e-15 -4.874754472204794e-12 2.349693383023557 2.926095814696736 33.533403668925544 6.5372657253119115 -2.2051505583182105 37.443039579553215 1.6628260911929426e-9 -3.1805543023118527e-15 -2.179830267765673e-11 -1.3439188049149333 -1.9626446397441941 22.978816746797996 1.6473917716757476 -0.340229570220043 22.58389128083156 -1.524762367070164e-8 -3.350057845199431e-15 -0.0000012738795267965104 -4.3035540930000415 2.1096548700448476 19.65415347599776 5.497075763822741 -2.8357460666012444 52.2193650444601 -0.000013081337852048256 0.000004036778728819463 -0.000007375140625580428 5.896857993870605 5.245448938032963 13.68932199688096 -11.827385304896094 3.263601176585069 1.0531577784316668 -0.0000021710867260004195 0.0000011618697544683478 0.0000047933033280196144 1.3555587877908069 -5.985265801971045 4.116516997452412 -0.14091980868990384 21.218484529372923 -0.8329223275246364 11.906672830463794 -10.979822478729316 -6.770053927605336 -0.025835075137583208 -0.016602340817576302 0.029022610408920436 0.350837628119334 -7.755511335065091 -4.641374592094943 0.037459461627078805 24.563989724813922 0.9307959710405979 -8.38890868153857 -13.602940834082222 6.098930388584517 -0.10632462270031943 -0.012200197879741474 0.26350867553396967
-0.039054278284311295 -0.24942374360560748 0.02428530529141426 -8.639430644348476 -3.080561440194521 1.1412394232559127 0.38619594780629346 3.696930781878945 -0.14747492194678294 1.5633297274543931 14.779889319149007 0.3161613783343045 0 0 0 -0.6279521631857252 3.012680562925513 2.1352816516208053 1.148378506533959 -8.93787521239536 -3.3183401347301875 0 0 0 0 0 0 0.0000014251437558921706 0.000009245920701667891 0.0002642921355492524 -20.37564414319163 6.320075629633658 -72.78573730662733 -78.90485079681541 0.5854823188849689 0.8117035021822628 -3.506085028180272 35.722506218398706 23.506706237994614 1.9170981092732027 -6.1115246311262235 -8.402762856487149 0.13382317940698352 -0.04431688977075836 -20.21328947002334 -5.138253261219184e-7 -0.000003038612174694916 0.0000014759412343762605 0.8865020703065997 -0.45983594969348723 -42.10818030930095 -1.160140878394236 -0.05869891612943299 -8.683648308560691 -0.000007385713298230362 -0.0000030978653486329573 0.0000016417671114700337 2.05448723706423 -0.38170621105410724 -14.188399132311348 -2.026000598080076 -0.40334614568302657 -21.90119440490899 -0.0000113669120121022 -0.000010454459829088182 -0.00000510058623201541 4.371628342719253 0.48954605140364843 -29.301308417324144 -2.487468842202241 -0.5703448357666175 -26.22099159882329 0.000007050897884467826 0.0000036704333823887617 -9.107201547124507e-8 -10.724869975486055 -3.8270672105693384 -3.3514452811600077 21.143677648923898 3.132555183247064 -4.848130475204996 -0.0000067253324397187314 -0.00000815080351285434 -0.0000015145599873184646 0.000007968279367460679 0.000003462051174768257 0.00030603303739949115 5.243078602318775 12.48517618837764 75.22389621617839 90.8249744438051 0.7600078844749557 -0.8223669417401493 6.686179916912974 30.521311298053753 -19.018609859386697 -6.880683441210895 -6.02141689761498 18.78866262032004 -0.27884345200163096 0.029386426619949904 8.883295841747534 3.933694872703174e-10 3.1805546814635168e-15 -4.874754472204794e-12 2.256441766341205 2.99065713774235 33.2300600722583 6.521312843714037 -2.1928178942279044 37.33556338320263 1.6628260911929426e-9 -3.1805543023118527e-15 -2.179830267765673e-11 -1.409827561530949 -1.9385707080312424 22.86424208755291 1.640901042095851 -0.33755147556980664 22.490067446907965 -1.524762367070164e-8 -3.350057845199431e-15 -0.0000012738795267965104 -4.363526359448461 2.1179824819412043 19.423296534698604 5.49047796290284 -2.827227812622257 52.13075411826218 -0.000013081337852048256 0.000004036778728819463 -0.000007375140625580428 5.864129624549894 5.264246072462426 13.667023251674545 -11.699419309183812 3.1989770472894437 1.061954966487825 -0.0000021710867260004195 0.0000011618697544683478 0.0000047933033280196144 1.304540640430747 -5.916801556355856 4.098415285591909 -0.1405213084059639 21.175672325075293 -0.8307152177765709 11.936924872822631 -10.977219496096243 -6.791229547519431 -0.02583748804844687 -0.01659912582605469 0.028998724758997743 0.319991241220962 -7.713274248262303 -4.656469193261582 0.037902603390604396 24.580749072996372 0.931657103044245 -8.38365041987686 -13.640407283999687 6.089488453389525 -0.10631197619986972 -0.012212169053853833 0.26350976941992194
